<?xml version="1.0" standalone="no"?>
<!DOCTYPE svg PUBLIC "-//W3C//DTD SVG 20010904//EN"
 "http://www.w3.org/TR/2001/REC-SVG-20010904/DTD/svg10.dtd">
<svg version="1.0" xmlns="http://www.w3.org/2000/svg"
 width="277.000000pt" height="277.000000pt" viewBox="0 0 277.000000 277.000000"
 preserveAspectRatio="xMidYMid meet">
<metadata>
Created by potrace 1.11, written by Peter Selinger 2001-2013
</metadata>
<g transform="translate(0.000000,277.000000) scale(0.100000,-0.100000)"
fill="#000000" stroke="none">
<path d="M0 1385 l0 -1385 1385 0 1385 0 0 1385 0 1385 -1385 0 -1385 0 0
-1385z m1461 1080 c66 -35 117 -131 106 -201 l-5 -32 220 -127 220 -127 48 26
c52 28 126 35 177 15 62 -23 122 -109 123 -174 0 -81 -51 -163 -116 -187 l-34
-12 0 -262 0 -262 24 -6 c64 -16 126 -105 126 -181 0 -74 -57 -159 -123 -184
-64 -24 -158 -8 -208 35 -13 12 -45 -4 -237 -114 l-221 -127 5 -35 c15 -95
-57 -198 -153 -218 -130 -28 -257 82 -240 208 l5 37 -220 128 -220 127 -48
-26 c-79 -43 -174 -34 -234 22 -103 97 -80 258 47 323 l37 19 0 259 0 259 -24
6 c-64 16 -126 105 -126 181 0 74 57 159 123 184 51 20 125 13 177 -15 l48
-26 220 127 220 128 -5 31 c-13 80 51 182 132 211 44 16 113 12 156 -10z"/>
<path d="M1005 2020 l-219 -128 -1 -55 c-2 -74 -42 -142 -102 -171 l-42 -21 0
-260 c0 -154 3 -254 8 -245 144 245 581 1004 579 1005 -2 2 -102 -55 -223
-125z"/>
<path d="M1510 2147 c0 -5 579 -1009 586 -1016 2 -2 4 113 4 257 0 213 -3 262
-13 262 -27 0 -94 58 -112 96 -10 22 -19 63 -20 93 l-1 53 -209 122 c-116 67
-216 125 -222 129 -7 5 -13 6 -13 4z"/>
<path d="M1311 2085 c-5 -5 -137 -234 -295 -507 l-286 -497 27 -50 28 -51 587
0 587 0 7 23 c3 12 15 34 26 49 l19 27 -115 198 c-63 109 -194 337 -292 507
l-179 309 -53 1 c-30 1 -57 -3 -61 -9z"/>
<path d="M791 876 c2 -2 101 -60 220 -128 l215 -124 39 25 c32 21 50 26 105
26 56 0 73 -4 108 -28 l42 -27 217 126 c120 69 220 128 222 130 2 2 -260 4
-584 4 -324 0 -586 -2 -584 -4z"/>
</g>
</svg>
